<svg xmlns="http://www.w3.org/2000/svg" width="36" height="59.999" viewBox="0 0 36 59.999">
  <g id="Group_34" data-name="Group 34" transform="translate(-402.945 -267.641)">
    <g id="Group_31" data-name="Group 31">
      <g id="Group_30" data-name="Group 30">
        <path id="Path_28" data-name="Path 28" d="M429.645,267.641a9.241,9.241,0,0,0-3.662.751,12.845,12.845,0,0,1-10.082,0,9.3,9.3,0,0,0-12.956,8.548,25.27,25.27,0,0,0,2.616,11.171l1.425,4.816a1,1,0,0,0,.959.713h3v5a1,1,0,0,0,1,1h3v2.327l-2.89-.321-.22,1.988,3.11.346v3.987l-2.89-.321-.22,1.988,3.11.346v3.987l-2.89-.321-.22,1.988,3.11.346v3.987l-2.89-.321-.22,1.988,3.177.354v.023l2,5a1,1,0,0,0,.933.629h6a1,1,0,0,0,.928-.629l1.5-3.761,3.457.384.221-1.988-3.106-.346v-3.987l2.889.321.221-1.988-3.11-.346v-3.987l2.889.321.221-1.988-3.11-.346v-3.987l2.889.321.221-1.988-3.11-.346v-3.66h3a1,1,0,0,0,1-1v-5h3a1,1,0,0,0,.959-.716l1.425-4.816a25.3,25.3,0,0,0,2.616-11.168A9.306,9.306,0,0,0,429.645,267.641Zm-6.38,58h-4.643l-1.361-3.4,7.055.784Zm1.68-4.561-8-.89V316.2l8,.888Zm0-6-8-.89V310.2l8,.888Zm0-6-8-.89V304.2l8,.888Zm0-6-8-.89V299.64h8Zm4-5.439h-16v-4h16Zm5.554-10.347a1.194,1.194,0,0,0-.063.163l-1.238,4.185H408.692l-1.238-4.185a1.084,1.084,0,0,0-.064-.163,23.249,23.249,0,0,1-2.445-10.353,7.3,7.3,0,0,1,10.171-6.71,14.857,14.857,0,0,0,11.657,0,7.3,7.3,0,0,1,10.172,6.71A23.263,23.263,0,0,1,434.5,287.293Z" fill="#fff"/>
      </g>
    </g>
    <g id="Group_33" data-name="Group 33">
      <g id="Group_32" data-name="Group 32">
        <path id="Path_29" data-name="Path 29" d="M410.445,271.772a6.584,6.584,0,0,0-3.5,5.673v1.2h2v-1.2a4.611,4.611,0,0,1,2.5-3.937Z" fill="#fff"/>
      </g>
    </g>
  </g>
</svg>
